<svg version="1" xmlns="http://www.w3.org/2000/svg" width="666.667" height="666.667" viewBox="0 0 500.000000 500.000000"><path d="M60.5 125.7c-7.4 1.7-15.2 7.6-19.5 14.9l-3.5 5.8v207.2l3.5 5.8c3.6 5.9 6.3 8.5 13.5 12.7l4 2.4H250c214.3 0 193.9.7 203.1-7.3 5.3-4.7 8.5-10.6 9.9-18.1.6-3.3 1-40.9 1-99.1 0-58.2-.4-95.8-1-99.1-1.4-7.5-4.6-13.4-9.9-18.1-9.2-8 10.9-7.3-201.1-7.4-104.2-.1-190.4 0-191.5.3zM402.1 136c4.3 1.2 8.9 5.1 11.8 10 2.1 3.5 2.1 4 2.1 104s0 100.5-2.1 104c-2.9 4.9-7.5 8.8-11.8 10-2 .5-14.8 1-28.4 1h-24.8l-2.8-6.3c-4.2-9.1-6.9-15.1-11.6-25.7l-4.3-9.5 32.3-.5c25.2-.4 32.6-.8 33.8-1.9 1.6-1.2 1.7-8.3 1.7-83.5-.1-66.7-.3-82.4-1.4-83.9-1.2-1.6-10.3-1.7-164.8-1.7-125.7 0-163.7.3-164.6 1.2-.9.9-1.2 21-1.2 84.5 0 81.3 0 83.3 1.9 84.3 1.3.6 13.7 1 33.5 1 17.4 0 31.6.3 31.6.6s-1.1 3-2.5 6-3.7 8-5.1 11.1c-1.4 3.2-4.1 9.2-6 13.3-1.9 4.1-3.8 8.2-4.3 9-.7 1.3-4.8 1.5-27.2 1.5H61.5l-4.7-2.7c-3.4-2.1-5.3-4.1-7.2-8l-2.6-5.2V151.4l2.6-5.2c2.5-5.1 6.6-8.5 12.2-10.2 4.1-1.2 335.9-1.2 340.3 0zM364 246.5V288H101v-83h263v41.5zm-44 79.1c.6 1.4 2.2 5.1 3.6 8.2 5.4 11.7 13.4 30 13.4 30.6 0 .3-47.5.6-105.5.6s-105.5-.2-105.5-.5 1.6-4 3.6-8.2c1.9-4.3 4.2-9.2 4.9-10.8.8-1.7 3.2-7 5.4-11.8 2.3-4.9 4.1-9.3 4.1-9.8s36.3-.9 87.5-.9H319l1 2.6z"/><path d="M182.6 218.6c-1.4 1.3-1.6 5.3-1.6 28.4 0 26.6 0 26.9 2.2 28.4 2 1.4 8.3 1.6 48.6 1.6 30 0 47-.4 48.3-1 1.8-1 1.9-2.4 1.9-28.8 0-20.3-.3-28.1-1.2-29-.9-.9-13.1-1.2-48.9-1.2-42.1 0-47.9.2-49.3 1.6zm34.3 18.7c1.1 8.3 1.1 11.3 0 19l-1.4 9.2-5.9.3-5.8.3.8-3.8c1.1-4.8 1.1-26.6 0-31.6l-.9-3.8 5.9.3 5.9.3 1.4 9.8zm14.4-4.1c-.4 3.5-.8 9.4-.8 13.3 0 3.8.4 9.8.8 13.2l.9 6.3H225.9l.8-4.8c1-6.1 1-22.3 0-29l-.9-5.2h6.4l-.9 6.2zm28.9-5.7c.3.3-.1 3.4-.8 6.8-1.7 7.9-1.7 17.5 0 25.4l1.4 6.3h-8.9c-8.8 0-8.9 0-9.6-2.8-.5-1.5-.8-9.5-.8-17.8 0-11.3.3-15.5 1.4-16.7 1-1.3 3.1-1.7 9.1-1.7 4.2 0 7.9.2 8.2.5zm-65.5 6.5c2.4 9.1.4 32-2.7 32-.6 0-1-7.7-1-19.1 0-13.9.3-19 1.1-18.7.7.2 1.8 2.9 2.6 5.8zm77.2 13.2c-.1 17.2-.2 18-1.5 13.9-2.2-7-2.8-16.1-1.4-22.6 1.4-7.3 2-9.5 2.6-9.5.2 0 .4 8.2.3 18.2zM132.4 223.6c-9 3.2-15.9 13.3-15.7 23.4 0 6.7 2 11.5 6.8 16.8 4 4.5 12.2 8.2 18 8.2 9.1 0 19.4-7 23-15.6 2.1-5 1.9-14.9-.4-19.9-5.3-11.7-19.1-17.4-31.7-12.9zm15.6 10.2c4.9 2.4 8 7.5 8 12.9 0 7.2-4 12.3-11.3 14.5-5.1 1.5-12.2-1.3-15.4-6.1-6.3-9.4.9-23.1 12.2-23.1 1.7 0 4.6.8 6.5 1.8zM313.1 224.1c-16.1 7.2-19.9 27.9-7.5 40.3 9.8 9.8 24.6 9.9 34.4.3 5.5-5.4 8-10.8 8-17.7 0-17.9-18.8-30.3-34.9-22.9zm16.9 10c4.2 2.4 8 8.2 8 12.3 0 6.2-4.4 12-10.8 14.6-6.3 2.5-14.8-1.7-17.8-8.9-1.9-4.5-1.8-6.7.6-11.6 3.7-7.7 12.6-10.5 20-6.4z"/></svg>